<svg xmlns="http://www.w3.org/2000/svg" version="1.1" xmlns:xlink="http://www.w3.org/1999/xlink" xmlns:svgjs="http://svgjs.dev/svgjs" width="1500" height="1500" viewBox="0 0 1500 1500"><rect width="1500" height="1500" fill="#000000"></rect><g transform="matrix(0.6666666666666666,0,0,0.6666666666666666,249.39393939393943,676.2563195688145)"><svg viewBox="0 0 396 58" data-background-color="#f5efe7" preserveAspectRatio="xMidYMid meet" height="219" width="1500" xmlns="http://www.w3.org/2000/svg" xmlns:xlink="http://www.w3.org/1999/xlink"><g id="tight-bounds" transform="matrix(1,0,0,1,0.2400000000000091,0.2954346918407964)"><svg viewBox="0 0 395.52 57.409130616318436" height="57.409130616318436" width="395.52"><g><svg viewBox="0 0 540.4344786340163 78.44324831478104" height="57.409130616318436" width="395.52"><g><rect width="4.515523123499796" height="78.05491540233162" x="128.57821434952226" y="0.19416645622471407" fill="#ffffff" opacity="1" stroke-width="0" stroke="transparent" fill-opacity="1" class="rect-yte-0" data-fill-palette-color="primary" rx="1%" id="yte-0" data-palette-color="#6a704c"></rect></g><g transform="matrix(1,0,0,1,144.9144786340163,0.3883329124494139)"><svg viewBox="0 0 395.52 77.66658248988222" height="77.66658248988222" width="395.52"><g id="textblocktransform"><svg viewBox="0 0 395.52 77.66658248988222" height="77.66658248988222" width="395.52" id="textblock"><g><svg viewBox="0 0 395.52 50.07176147085782" height="50.07176147085782" width="395.52"><g transform="matrix(1,0,0,1,0,0)"><svg width="395.52" viewBox="2.83 -43.46 452.77000000000004 57.33" height="50.07176147085782" data-palette-color="#6a704c"><path d="M12.13-4.39L12.13-4.39Q16.82-4.39 16.82-7.54L16.82-7.54Q16.82-9.28 14.16-10.47L14.16-10.47Q13.04-10.99 11.71-11.43 10.38-11.87 9.16-12.48 7.93-13.09 6.87-13.81 5.81-14.53 5.03-15.45L5.03-15.45Q3.42-17.41 3.42-20.41L3.42-20.41Q3.42-24.07 6.47-26.22L6.47-26.22Q9.18-28.15 13.13-28.15L13.13-28.15Q17.38-28.15 20.24-26.49L20.24-26.49Q21.22-25.9 21.22-25.15L21.22-25.15Q21.22-24.07 20.64-22.79 20.07-21.51 19.3-21.51 18.53-21.51 17.91-21.83 17.29-22.14 16.78-22.38 16.28-22.61 15.72-22.75L15.72-22.75Q14.5-23.12 13.46-23.12 12.43-23.12 11.79-22.97 11.16-22.83 10.64-22.51L10.64-22.51Q9.4-21.75 9.4-20.65 9.4-19.56 9.9-18.97 10.4-18.38 11.28-17.9 12.16-17.41 13.38-16.92L13.38-16.92 16.02-15.82Q19.21-14.43 20.34-13.31L20.34-13.31Q22.53-11.06 22.53-8.11L22.53-8.11Q22.53-4.39 20-2L20-2Q17.19 0.61 12.01 0.61L12.01 0.61Q6.76 0.61 4.13-1.42L4.13-1.42Q2.83-2.39 2.83-3.17 2.83-3.96 3.11-4.58 3.39-5.2 3.85-6.04 4.3-6.88 5.07-6.88 5.83-6.88 6.7-6.19 7.57-5.49 9.08-4.94 10.6-4.39 12.13-4.39ZM27.93-13.87L27.93-13.87Q27.93-17.04 28.99-19.69 30.05-22.34 31.91-24.22L31.91-24.22Q35.79-28.15 41.7-28.15L41.7-28.15Q48.31-28.15 51.95-24.22L51.95-24.22Q55.47-20.43 55.47-13.82L55.47-13.82Q55.47-7.42 51.49-3.37L51.49-3.37Q47.6 0.61 41.7 0.61L41.7 0.61Q35.47 0.61 31.69-3.47L31.69-3.47Q27.93-7.45 27.93-13.87ZM35.78-20.08Q34.86-18.73 34.45-17 34.03-15.28 34.03-13.51 34.03-11.74 34.51-10.12 34.98-8.5 35.94-7.23L35.94-7.23Q38.03-4.44 41.79-4.44L41.79-4.44Q45.63-4.44 47.6-7.18L47.6-7.18Q49.36-9.57 49.36-13.7L49.36-13.7Q49.36-19.87 45.31-22.22L45.31-22.22Q43.82-23.07 41.71-23.07 39.6-23.07 38.14-22.25 36.69-21.44 35.78-20.08ZM87.52-1.66L87.52-1.66Q87.52 0 86.01 0L86.01 0 84.91 0Q83.44 0 82.98-1.17L82.98-1.17Q82.47-2.51 81.88-4.91L81.88-4.91Q80.85-2.34 78.4-0.87 75.95 0.61 72.29 0.61L72.29 0.61Q67.5 0.61 65.23-2.38 62.96-5.37 62.96-11.21L62.96-11.21 62.96-25.93Q62.96-26.61 63.39-27.08 63.81-27.54 64.59-27.54L64.59-27.54 67.28-27.54Q68.89-27.54 68.89-25.93L68.89-25.93 68.89-11.47Q68.89-5.64 71.6-4.74L71.6-4.74Q72.48-4.44 73.69-4.44 74.9-4.44 76.18-5 77.46-5.57 78.49-6.49L78.49-6.49Q80.78-8.62 80.78-11.35L80.78-11.35 80.78-25.93Q80.78-26.61 81.2-27.08 81.61-27.54 82.51-27.54L82.51-27.54 85.08-27.54Q85.93-27.54 86.32-27.08 86.71-26.61 86.71-25.93L86.71-25.93 86.71-10.67Q86.71-5.52 87.45-2.37L87.45-2.37Q87.52-2.1 87.52-1.66ZM95.52-25.78L95.52-25.78Q95.52-27.54 97.06-27.54L97.06-27.54 98.38-27.54Q99.72-27.54 100.29-26.37L100.29-26.37Q101.09-24.66 101.46-21.66L101.46-21.66Q101.46-21.61 101.49-21.61 101.53-21.61 101.65-22.44 101.77-23.27 102.36-24.48 102.95-25.68 103.8-26.51L103.8-26.51Q105.53-28.15 108.05-28.15L108.05-28.15Q110.86-28.15 111.96-27.22L111.96-27.22Q112.47-26.81 112.37-26.07L112.37-26.07 111.98-23Q111.83-21.75 110.71-21.75L110.71-21.75Q110.17-21.75 109.39-21.97L109.39-21.97Q107.88-22.36 107-22.36 106.12-22.36 105.14-21.59 104.17-20.83 103.46-19.68L103.46-19.68Q102.02-17.29 102.02-14.58L102.02-14.58 102.02-1.61Q102.02-0.93 101.63-0.46 101.24 0 100.51 0L100.51 0 97.67 0Q96.89 0 96.49-0.46 96.09-0.93 96.09-1.61L96.09-1.61 96.09-18.43Q96.09-22.73 95.81-24.11 95.52-25.49 95.52-25.78ZM135.2-24.1L135.2-24.1 135.2-41.75Q135.2-42.38 135.57-42.83 135.95-43.29 136.51-43.29L136.51-43.29 139.91-43.29Q140.47-43.29 140.83-42.83 141.2-42.38 141.2-41.75L141.2-41.75 141.2-10.45Q141.2-5.52 141.98-2.27L141.98-2.27Q142.06-1.93 142.06-1.4 142.06-0.88 141.6-0.44 141.15 0 140.44 0L140.44 0 139.25 0Q137.81 0 137.32-1.17L137.32-1.17Q136.68-2.66 136.27-5.1L136.27-5.1Q134.39-1.12 129.95 0.2L129.95 0.2Q128.48 0.61 126.3 0.61 124.11 0.61 121.95-0.51 119.79-1.64 118.28-3.56L118.28-3.56Q115.18-7.57 115.18-13.53L115.18-13.53Q115.18-19.68 118.18-23.73L118.18-23.73Q121.43-28.15 126.85-28.15 132.27-28.15 135.2-24.1ZM121.43-13.35L121.43-13.35Q121.43-11.69 121.83-10.11 122.23-8.52 123.06-7.28L123.06-7.28Q124.92-4.44 128.19-4.44L128.19-4.44Q131.17-4.44 133.41-7.03L133.41-7.03Q135.81-9.72 135.81-13.38L135.81-13.38Q135.81-17.82 133.49-20.51L133.49-20.51Q131.26-23.07 128.02-23.07L128.02-23.07Q124.62-23.07 122.87-19.87L122.87-19.87Q121.43-17.19 121.43-13.35ZM148.69-13.87L148.69-13.87Q148.69-17.04 149.76-19.69 150.82-22.34 152.67-24.22L152.67-24.22Q156.55-28.15 162.46-28.15L162.46-28.15Q169.08-28.15 172.72-24.22L172.72-24.22Q176.23-20.43 176.23-13.82L176.23-13.82Q176.23-7.42 172.25-3.37L172.25-3.37Q168.37 0.61 162.46 0.61L162.46 0.61Q156.24 0.61 152.45-3.47L152.45-3.47Q148.69-7.45 148.69-13.87ZM156.54-20.08Q155.63-18.73 155.21-17 154.8-15.28 154.8-13.51 154.8-11.74 155.27-10.12 155.75-8.5 156.7-7.23L156.7-7.23Q158.8-4.44 162.56-4.44L162.56-4.44Q166.39-4.44 168.37-7.18L168.37-7.18Q170.13-9.57 170.13-13.7L170.13-13.7Q170.13-19.87 166.08-22.22L166.08-22.22Q164.59-23.07 162.48-23.07 160.36-23.07 158.91-22.25 157.46-21.44 156.54-20.08ZM208.29-1.66L208.29-1.66Q208.29 0 206.77 0L206.77 0 205.67 0Q204.21 0 203.74-1.17L203.74-1.17Q203.23-2.51 202.65-4.91L202.65-4.91Q201.62-2.34 199.17-0.87 196.71 0.61 193.05 0.61L193.05 0.61Q188.27 0.61 186-2.38 183.73-5.37 183.73-11.21L183.73-11.21 183.73-25.93Q183.73-26.61 184.15-27.08 184.58-27.54 185.36-27.54L185.36-27.54 188.05-27.54Q189.66-27.54 189.66-25.93L189.66-25.93 189.66-11.47Q189.66-5.64 192.37-4.74L192.37-4.74Q193.25-4.44 194.46-4.44 195.66-4.44 196.95-5 198.23-5.57 199.25-6.49L199.25-6.49Q201.55-8.62 201.55-11.35L201.55-11.35 201.55-25.93Q201.55-26.61 201.96-27.08 202.38-27.54 203.28-27.54L203.28-27.54 205.84-27.54Q206.7-27.54 207.09-27.08 207.48-26.61 207.48-25.93L207.48-25.93 207.48-10.67Q207.48-5.52 208.21-2.37L208.21-2.37Q208.29-2.1 208.29-1.66ZM223.62-2.61L223.62-2.61Q225.91-3.74 228.49-3.74 231.06-3.74 233.08-3.26 235.09-2.78 236.7-1.76L236.7-1.76Q240.31 0.54 240.31 4.66L240.31 4.66Q240.31 8.96 236.21 11.57L236.21 11.57Q232.58 13.87 227.47 13.87L227.47 13.87Q222.27 13.87 218.81 11.62L218.81 11.62Q215.07 9.18 215.07 4.98L215.07 4.98Q215.07-0.12 220.47-4.88L220.47-4.88Q222.57-6.71 225.1-8.18L225.1-8.18Q221.13-8.54 218.32-10.99L218.32-10.99Q215.17-13.75 215.17-17.85L215.17-17.85Q215.17-22.56 218.71-25.49L218.71-25.49Q221.96-28.15 226.45-28.15L226.45-28.15Q231.28-28.15 234.04-25.54L234.04-25.54Q234.89-24.73 235.41-23.71L235.41-23.71Q235.41-25.95 234.83-28.36 234.26-30.76 234.26-31.23 234.26-31.69 234.44-31.97 234.63-32.25 234.87-32.4L234.87-32.4Q235.24-32.62 235.7-32.62L235.7-32.62 237.8-32.62Q239.83-32.62 239.83-26.98L239.83-26.98Q239.83-22.46 238.02-18.65L238.02-18.65Q238.07-18.12 238.07-17.24 238.07-16.36 237.68-15.19 237.29-14.01 236.64-13 235.99-11.99 235.15-11.13 234.31-10.28 233.37-9.55 232.43-8.81 231.48-8.2L231.48-8.2Q226.13-4.81 225.08-3.97 224.03-3.13 223.62-2.61ZM222.49-13.95Q223.32-13.23 224.43-12.85 225.54-12.48 226.8-12.48 228.06-12.48 229.11-12.85 230.16-13.23 230.96-13.96L230.96-13.96Q232.67-15.5 232.67-17.92L232.67-17.92Q232.67-20.39 230.77-21.8L230.77-21.8Q229.08-23.05 226.62-23.05L226.62-23.05Q222.71-23.05 221.22-20.14L221.22-20.14Q220.73-19.19 220.73-17.93 220.73-16.67 221.2-15.67 221.66-14.67 222.49-13.95ZM221.32 1.9L221.32 1.9Q220.42 2.93 220.42 4.17 220.42 5.42 221.03 6.3 221.64 7.18 222.64 7.76L222.64 7.76Q224.57 8.86 227.47 8.86L227.47 8.86Q232.06 8.86 233.87 6.59L233.87 6.59Q234.46 5.83 234.46 4.69 234.46 3.54 233.73 2.73 233.01 1.93 231.94 1.49L231.94 1.49Q230.16 0.76 227.3 0.76L227.3 0.76Q222.91 0.76 221.32 1.9ZM246.76-1.61L246.76-41.75Q246.76-42.41 247.14-42.85 247.51-43.29 248.05-43.29L248.05-43.29 251.4-43.29Q251.96-43.29 252.32-42.85 252.69-42.41 252.69-41.75L252.69-41.75 252.69-23.27Q254.79-26.83 258.87-27.83L258.87-27.83Q260.16-28.15 262.15-28.15 264.14-28.15 265.87-27.28 267.61-26.42 268.63-24.9L268.63-24.9Q270.46-22.14 270.46-16.77L270.46-16.77 270.46-1.61Q270.46-0.88 270.02-0.44 269.58 0 268.73 0L268.73 0 266.34 0Q265.41 0 264.97-0.46 264.53-0.93 264.53-1.61L264.53-1.61 264.53-16.8Q264.53-23.05 259.94-23.05L259.94-23.05Q257.38-23.05 255.11-20.8L255.11-20.8Q252.69-18.36 252.69-15.19L252.69-15.19 252.69-1.61Q252.69-0.93 252.27-0.46 251.86 0 250.93 0L250.93 0 248.27 0Q247.56 0 247.16-0.46 246.76-0.93 246.76-1.61L246.76-1.61ZM317.16-15.26L314.79-15.26Q316.02-12.94 316.02-10.41 316.02-7.89 314.95-5.82 313.89-3.76 312.08-2.29L312.08-2.29Q308.35 0.73 302.9 0.73L302.9 0.73Q298.34 0.73 294.92-1.37L294.92-1.37Q290.99-3.83 290.99-8.18L290.99-8.18Q290.99-12.77 295.14-15.55L295.14-15.55Q296.34-16.36 297.66-16.87L297.66-16.87Q293.07-18.04 291.53-22.02L291.53-22.02Q290.99-23.44 290.99-25.59 290.99-27.73 292.05-29.66 293.11-31.59 294.82-32.91L294.82-32.91Q298.31-35.6 302.88-35.6L302.88-35.6Q309.37-35.6 313.21-32.62L313.21-32.62Q314.28-31.76 314.33-31.05L314.33-31.05Q314.33-30.57 314.09-30.25L314.09-30.25 312.6-28.13Q312.01-27.22 311.25-27.22L311.25-27.22Q310.79-27.22 310.28-27.6 309.77-27.98 308.98-28.48 308.2-28.98 307.32-29.37L307.32-29.37Q305.37-30.22 303.76-30.22 302.15-30.22 301.06-29.97 299.98-29.71 299.12-29.13L299.12-29.13Q297.19-27.83 297.19-25.34L297.19-25.34Q297.19-22.71 300.15-21.19L300.15-21.19Q302.66-19.95 305.76-19.95L305.76-19.95 317.16-19.95Q318.53-19.95 318.53-18.77L318.53-18.77 318.53-16.31Q318.53-15.82 318.13-15.54 317.72-15.26 317.16-15.26L317.16-15.26ZM297.9-11.43L297.9-11.43Q297.22-10.16 297.22-8.87 297.22-7.59 297.7-6.81 298.19-6.03 299-5.52L299-5.52Q300.66-4.42 302.56-4.42 304.47-4.42 305.82-4.88 307.18-5.35 308.2-6.25L308.2-6.25Q310.42-8.18 310.42-11.47L310.42-11.47Q310.42-13.77 309.33-14.97L309.33-14.97Q309.08-15.23 308.98-15.38L308.98-15.38Q308.72-15.41 308.47-15.41L308.47-15.41 307.96-15.41Q300.12-15.41 297.9-11.43ZM345.23-4.39L345.23-4.39Q349.92-4.39 349.92-7.54L349.92-7.54Q349.92-9.28 347.26-10.47L347.26-10.47Q346.14-10.99 344.81-11.43 343.48-11.87 342.26-12.48 341.03-13.09 339.97-13.81 338.91-14.53 338.13-15.45L338.13-15.45Q336.52-17.41 336.52-20.41L336.52-20.41Q336.52-24.07 339.57-26.22L339.57-26.22Q342.28-28.15 346.23-28.15L346.23-28.15Q350.48-28.15 353.34-26.49L353.34-26.49Q354.32-25.9 354.32-25.15L354.32-25.15Q354.32-24.07 353.74-22.79 353.17-21.51 352.4-21.51 351.63-21.51 351.01-21.83 350.39-22.14 349.88-22.38 349.38-22.61 348.82-22.75L348.82-22.75Q347.6-23.12 346.56-23.12 345.53-23.12 344.89-22.97 344.26-22.83 343.74-22.51L343.74-22.51Q342.5-21.75 342.5-20.65 342.5-19.56 343-18.97 343.5-18.38 344.38-17.9 345.26-17.41 346.48-16.92L346.48-16.92 349.12-15.82Q352.31-14.43 353.44-13.31L353.44-13.31Q355.63-11.06 355.63-8.11L355.63-8.11Q355.63-4.39 353.1-2L353.1-2Q350.29 0.61 345.11 0.61L345.11 0.61Q339.86 0.61 337.23-1.42L337.23-1.42Q335.93-2.39 335.93-3.17 335.93-3.96 336.21-4.58 336.49-5.2 336.95-6.04 337.4-6.88 338.17-6.88 338.93-6.88 339.8-6.19 340.67-5.49 342.18-4.94 343.7-4.39 345.23-4.39ZM377.51-26.2L377.51-23.83Q377.51-22.46 375.97-22.46L375.97-22.46 369.08-22.46 369.08-7.13Q369.08-4.64 371.55-4.64L371.55-4.64Q373.11-4.64 375.63-6.2L375.63-6.2Q376.11-6.52 376.69-6.52 377.26-6.52 377.6-5.71L377.6-5.71 378.17-4.44Q378.48-3.71 378.48-3.2 378.48-2.69 377.71-2.01 376.95-1.34 375.75-0.81L375.75-0.81Q373.04 0.42 370.84 0.42 368.64 0.42 367.36-0.04 366.08-0.49 365.18-1.39L365.18-1.39Q363.22-3.3 363.22-6.88L363.22-6.88 363.22-22.46 361.17-22.46Q359.64-22.46 359.64-23.85L359.64-23.85 359.64-25.24Q359.64-25.81 359.93-26.12 360.22-26.44 361.08-26.61L361.08-26.61 363.52-27.32 364.45-33.06Q364.71-34.67 365.76-34.67L365.76-34.67 367.79-34.67Q368.35-34.67 368.72-34.22 369.08-33.76 369.08-33.06L369.08-33.06 369.08-27.54 375.97-27.54Q377.51-27.54 377.51-26.2L377.51-26.2ZM408.05-1.66L408.05-1.66Q408.05 0 406.53 0L406.53 0 405.43 0Q403.97 0 403.51-1.17L403.51-1.17Q402.99-2.51 402.41-4.91L402.41-4.91Q401.38-2.34 398.93-0.87 396.47 0.61 392.81 0.61L392.81 0.61Q388.03 0.61 385.76-2.38 383.49-5.37 383.49-11.21L383.49-11.21 383.49-25.93Q383.49-26.61 383.91-27.08 384.34-27.54 385.12-27.54L385.12-27.54 387.81-27.54Q389.42-27.54 389.42-25.93L389.42-25.93 389.42-11.47Q389.42-5.64 392.13-4.74L392.13-4.74Q393.01-4.44 394.22-4.44 395.42-4.44 396.71-5 397.99-5.57 399.01-6.49L399.01-6.49Q401.31-8.62 401.31-11.35L401.31-11.35 401.31-25.93Q401.31-26.61 401.72-27.08 402.14-27.54 403.04-27.54L403.04-27.54 405.6-27.54Q406.46-27.54 406.85-27.08 407.24-26.61 407.24-25.93L407.24-25.93 407.24-10.67Q407.24-5.52 407.97-2.37L407.97-2.37Q408.05-2.1 408.05-1.66ZM432.34-26.2L432.34-23.83Q432.34-22.46 430.8-22.46L430.8-22.46 424.84-22.46 424.84-1.73Q424.84-0.95 424.4-0.48 423.96 0 423.18 0L423.18 0 420.79 0Q419.93 0 419.47-0.48 419.01-0.95 419.01-1.73L419.01-1.73 419.01-22.46 415.56-22.46Q414.03-22.46 414.03-23.85L414.03-23.85 414.03-25.22Q414.03-25.78 414.33-26.06 414.64-26.34 415.47-26.59L415.47-26.59 419.1-27.17Q417.86-30.44 417.65-32.02 417.44-33.59 417.44-35.02 417.44-36.45 418.08-38.01 418.71-39.58 419.93-40.77L419.93-40.77Q422.67-43.46 427.21-43.46L427.21-43.46Q430.8-43.46 433.39-41.92L433.39-41.92Q434.83-41.04 434.83-40.34 434.83-39.65 434.39-39.04L434.39-39.04 433.21-37.38Q432.73-36.72 432.3-36.72 431.87-36.72 431.48-36.96 431.09-37.21 430.55-37.5L430.55-37.5Q429.11-38.28 427.23-38.28L427.23-38.28Q423.11-38.28 423.11-33.08L423.11-33.08Q423.11-30.57 424.23-27.54L424.23-27.54 430.8-27.54Q432.34-27.54 432.34-26.2L432.34-26.2ZM453.11-26.2L453.11-23.83Q453.11-22.46 451.57-22.46L451.57-22.46 445.61-22.46 445.61-1.73Q445.61-0.95 445.17-0.48 444.74 0 443.95 0L443.95 0 441.56 0Q440.71 0 440.24-0.48 439.78-0.95 439.78-1.73L439.78-1.73 439.78-22.46 436.34-22.46Q434.8-22.46 434.8-23.85L434.8-23.85 434.8-25.22Q434.8-25.78 435.1-26.06 435.41-26.34 436.24-26.59L436.24-26.59 439.88-27.17Q438.63-30.44 438.42-32.02 438.22-33.59 438.22-35.02 438.22-36.45 438.85-38.01 439.49-39.58 440.71-40.77L440.71-40.77Q443.44-43.46 447.98-43.46L447.98-43.46Q451.57-43.46 454.16-41.92L454.16-41.92Q455.6-41.04 455.6-40.34 455.6-39.65 455.16-39.04L455.16-39.04 453.99-37.38Q453.5-36.72 453.07-36.72 452.65-36.72 452.25-36.96 451.86-37.21 451.33-37.5L451.33-37.5Q449.89-38.28 448.01-38.28L448.01-38.28Q443.88-38.28 443.88-33.08L443.88-33.08Q443.88-30.57 445-27.54L445-27.54 451.57-27.54Q453.11-27.54 453.11-26.2L453.11-26.2Z" opacity="1" transform="matrix(1,0,0,1,0,0)" fill="#ffffff" class="wordmark-text-0" data-fill-palette-color="primary" id="text-0"></path></svg></g></svg></g><g transform="matrix(1,0,0,1,0,61.892502631852054)"><svg viewBox="0 0 375.74399999999997 15.774079858030165" height="15.774079858030165" width="375.74399999999997"><g transform="matrix(1,0,0,1,0,0)"><svg width="375.74399999999997" viewBox="2.15 -37.35 901.52 37.85" height="15.774079858030165" data-palette-color="#412e27"><path d="M12.35 0.5Q9.35 0.5 6.4-0.55 3.45-1.6 2.15-2.9L2.15-2.9 4.8-7.65Q5.85-6.7 8.08-5.68 10.3-4.65 12.35-4.65L12.35-4.65Q15-4.65 16.68-5.9 18.35-7.15 18.35-9.35L18.35-9.35Q18.35-11.05 17.45-12.3 16.55-13.55 15.25-14.38 13.95-15.2 11.55-16.4L11.55-16.4Q8.7-17.8 7.65-18.5L7.65-18.5Q2.8-21.75 2.8-27.5L2.8-27.5Q2.8-32.25 5.95-34.77 9.1-37.3 13.9-37.3L13.9-37.3Q19.05-37.3 22.65-34.35L22.65-34.35 20-29.8Q19.05-30.8 17.32-31.53 15.6-32.25 13.65-32.25L13.65-32.25Q11.15-32.25 9.73-31.13 8.3-30 8.3-27.8L8.3-27.8Q8.3-26.25 9.2-25.03 10.1-23.8 11.48-22.9 12.85-22 15.2-20.7L15.2-20.7Q17.45-19.45 18.65-18.73 19.85-18 20.9-17L20.9-17Q22.35-15.7 23.25-13.9 24.15-12.1 24.15-9.95L24.15-9.95Q24.15-6.6 22.63-4.25 21.1-1.9 18.43-0.7 15.75 0.5 12.35 0.5L12.35 0.5ZM47.05 0.5Q42.05 0.5 37.82-1.83 33.6-4.15 31.1-8.45 28.6-12.75 28.6-18.45L28.6-18.45Q28.6-24.2 31.1-28.48 33.6-32.75 37.82-35.05 42.05-37.35 47.05-37.35L47.05-37.35Q52.05-37.35 56.27-35.05 60.5-32.75 63-28.48 65.5-24.2 65.5-18.45L65.5-18.45Q65.5-12.75 63-8.45 60.5-4.15 56.27-1.83 52.05 0.5 47.05 0.5L47.05 0.5ZM47.05-4.55Q50.5-4.55 53.35-6.18 56.2-7.8 57.87-10.93 59.55-14.05 59.55-18.4L59.55-18.4Q59.55-22.8 57.87-25.93 56.2-29.05 53.37-30.65 50.55-32.25 47.05-32.25L47.05-32.25Q43.55-32.25 40.7-30.65 37.85-29.05 36.2-25.93 34.55-22.8 34.55-18.4L34.55-18.4Q34.55-14.05 36.25-10.93 37.95-7.8 40.82-6.18 43.7-4.55 47.05-4.55L47.05-4.55ZM90.05 0L81.19-17.15 78.89-22.35 77.84-17.15 74.44 0 68.89 0 76.5-36.75 77.09-36.75 87.19-16.9 90.19-10.25 93.19-16.9 103.09-36.75 103.65-36.75 111.55 0 106.05 0 102.34-17.15 101.25-22.35 99.25-17.15 90.34 0 90.05 0ZM116.44 0L116.44-36.75 132.54-36.75 132.54-31.85 121.99-31.85 121.99-21.7 130.49-21.7 130.49-16.7 121.99-16.7 121.99-4.95 134.19-4.95 134.19 0 116.44 0ZM160.54 0.5Q157.54 0.5 154.59-0.55 151.64-1.6 150.34-2.9L150.34-2.9 152.99-7.65Q154.04-6.7 156.26-5.68 158.49-4.65 160.54-4.65L160.54-4.65Q163.19-4.65 164.86-5.9 166.54-7.15 166.54-9.35L166.54-9.35Q166.54-11.05 165.64-12.3 164.74-13.55 163.44-14.38 162.14-15.2 159.74-16.4L159.74-16.4Q156.89-17.8 155.84-18.5L155.84-18.5Q150.99-21.75 150.99-27.5L150.99-27.5Q150.99-32.25 154.14-34.77 157.29-37.3 162.09-37.3L162.09-37.3Q167.24-37.3 170.84-34.35L170.84-34.35 168.19-29.8Q167.24-30.8 165.51-31.53 163.79-32.25 161.84-32.25L161.84-32.25Q159.34-32.25 157.91-31.13 156.49-30 156.49-27.8L156.49-27.8Q156.49-26.25 157.39-25.03 158.29-23.8 159.66-22.9 161.04-22 163.39-20.7L163.39-20.7Q165.64-19.45 166.84-18.73 168.04-18 169.09-17L169.09-17Q170.54-15.7 171.44-13.9 172.34-12.1 172.34-9.95L172.34-9.95Q172.34-6.6 170.81-4.25 169.29-1.9 166.61-0.7 163.94 0.5 160.54 0.5L160.54 0.5ZM195.24 0.5Q190.24 0.5 186.01-1.83 181.78-4.15 179.28-8.45 176.78-12.75 176.78-18.45L176.78-18.45Q176.78-24.2 179.28-28.48 181.78-32.75 186.01-35.05 190.24-37.35 195.24-37.35L195.24-37.35Q200.24-37.35 204.46-35.05 208.69-32.75 211.19-28.48 213.69-24.2 213.69-18.45L213.69-18.45Q213.69-12.75 211.19-8.45 208.69-4.15 204.46-1.83 200.24 0.5 195.24 0.5L195.24 0.5ZM195.24-4.55Q198.69-4.55 201.53-6.18 204.38-7.8 206.06-10.93 207.74-14.05 207.74-18.4L207.74-18.4Q207.74-22.8 206.06-25.93 204.38-29.05 201.56-30.65 198.74-32.25 195.24-32.25L195.24-32.25Q191.74-32.25 188.88-30.65 186.03-29.05 184.38-25.93 182.74-22.8 182.74-18.4L182.74-18.4Q182.74-14.05 184.44-10.93 186.13-7.8 189.01-6.18 191.88-4.55 195.24-4.55L195.24-4.55ZM232.58 0.5Q225.68 0.5 222.58-3.65 219.48-7.8 219.48-15.7L219.48-15.7 219.48-36.75 225.08-36.75 225.08-15.6Q225.08-9.75 226.83-7.23 228.58-4.7 232.58-4.7L232.58-4.7Q236.58-4.7 238.31-7.18 240.03-9.65 240.03-15.6L240.03-15.6 240.03-36.75 245.68-36.75 245.68-15.7Q245.68-7.85 242.41-3.68 239.13 0.5 232.58 0.5L232.58 0.5ZM277.83 0L271.38 0 263.98-13.9Q261.68-13.8 259.88-13.8L259.88-13.8 258.48-13.8 258.48 0 253.03 0 253.03-36.75 261.38-36.75Q267.73-36.75 271.83-34.13 275.93-31.5 275.93-25.6L275.93-25.6Q275.93-21.9 274.2-19.23 272.48-16.55 269.08-15.1L269.08-15.1 277.83 0ZM258.48-18.35L262.03-18.35Q266.93-18.35 268.75-20.48 270.58-22.6 270.58-25.55L270.58-25.55Q270.58-32.1 261.83-32.1L261.83-32.1 258.48-32.1 258.48-18.35ZM283.53 0L283.53-36.75 292.38-36.75Q303.48-36.75 307.9-31.5 312.33-26.25 312.33-19L312.33-19Q312.33-13.95 310.43-9.68 308.53-5.4 304.15-2.7 299.78 0 292.68 0L292.68 0 283.53 0ZM289.13-4.95L293.28-4.95Q300.18-4.95 303.3-8.88 306.43-12.8 306.43-18.75L306.43-18.75Q306.43-24.55 303.28-28.2 300.13-31.85 293.28-31.85L293.28-31.85 289.13-31.85 289.13-4.95ZM334.82 0.5Q329.82 0.5 325.6-1.83 321.38-4.15 318.88-8.45 316.38-12.75 316.38-18.45L316.38-18.45Q316.38-24.2 318.88-28.48 321.38-32.75 325.6-35.05 329.82-37.35 334.82-37.35L334.82-37.35Q339.82-37.35 344.05-35.05 348.27-32.75 350.77-28.48 353.27-24.2 353.27-18.45L353.27-18.45Q353.27-12.75 350.77-8.45 348.27-4.15 344.05-1.83 339.82 0.5 334.82 0.5L334.82 0.5ZM334.82-4.55Q338.27-4.55 341.13-6.18 343.97-7.8 345.65-10.93 347.32-14.05 347.32-18.4L347.32-18.4Q347.32-22.8 345.65-25.93 343.97-29.05 341.15-30.65 338.32-32.25 334.82-32.25L334.82-32.25Q331.32-32.25 328.47-30.65 325.63-29.05 323.97-25.93 322.32-22.8 322.32-18.4L322.32-18.4Q322.32-14.05 324.02-10.93 325.72-7.8 328.6-6.18 331.47-4.55 334.82-4.55L334.82-4.55ZM372.17 0.5Q365.27 0.5 362.17-3.65 359.07-7.8 359.07-15.7L359.07-15.7 359.07-36.75 364.67-36.75 364.67-15.6Q364.67-9.75 366.42-7.23 368.17-4.7 372.17-4.7L372.17-4.7Q376.17-4.7 377.9-7.18 379.62-9.65 379.62-15.6L379.62-15.6 379.62-36.75 385.27-36.75 385.27-15.7Q385.27-7.85 382-3.68 378.72 0.5 372.17 0.5L372.17 0.5ZM409.77 0.5Q404.32 0.5 400.02-2 395.72-4.5 393.3-8.88 390.87-13.25 390.87-18.7L390.87-18.7Q390.87-24 393.32-28.25 395.77-32.5 400.12-34.9 404.47-37.3 409.92-37.3L409.92-37.3Q412.87-37.3 415.25-36.77 417.62-36.25 419.12-35.58 420.62-34.9 421.17-34.4L421.17-34.4 418.97-29.7Q415.87-32.2 409.82-32.2L409.82-32.2Q405.82-32.2 402.87-30.45 399.92-28.7 398.37-25.7 396.82-22.7 396.82-19L396.82-19Q396.82-14.8 398.5-11.5 400.17-8.2 403.15-6.38 406.12-4.55 409.87-4.55L409.87-4.55Q412.22-4.55 414.37-5.13 416.52-5.7 418.02-6.95L418.02-6.95 418.02-14.05 410.47-14.05 410.47-19.2 423.57-19.2 423.57-4.8Q421.77-2.55 418.15-1.03 414.52 0.5 409.77 0.5L409.77 0.5ZM429.77 0L429.77-36.75 435.37-36.75 435.37-21.75 448.32-21.75 448.32-36.75 453.92-36.75 453.92 0 448.32 0 448.32-17.05 435.37-17.05 435.37 0 429.77 0ZM473.91 0L473.91-36.75 483.26-36.75Q491.16-36.75 493.76-34.1 496.36-31.45 496.36-27.7L496.36-27.7Q496.36-25.2 495.26-22.98 494.16-20.75 491.76-19.65L491.76-19.65Q495.31-18.75 496.99-16.5 498.66-14.25 498.66-11.2L498.66-11.2Q498.66-8 497.66-5.6 496.66-3.2 493.51-1.6 490.36 0 484.41 0L484.41 0 473.91 0ZM479.41-21.15L484.16-21.15Q487.71-21.15 489.21-22.88 490.71-24.6 490.71-27.25L490.71-27.25Q490.71-32 483.91-32L483.91-32 479.41-32 479.41-21.15ZM479.41-4.7L485.16-4.7Q489.71-4.7 491.29-6.53 492.86-8.35 492.86-11.15L492.86-11.15Q492.86-13.8 491.06-15.25 489.26-16.7 485.61-16.7L485.61-16.7 479.41-16.7 479.41-4.7ZM517.86 0.5Q510.96 0.5 507.86-3.65 504.76-7.8 504.76-15.7L504.76-15.7 504.76-36.75 510.36-36.75 510.36-15.6Q510.36-9.75 512.11-7.23 513.86-4.7 517.86-4.7L517.86-4.7Q521.86-4.7 523.59-7.18 525.31-9.65 525.31-15.6L525.31-15.6 525.31-36.75 530.96-36.75 530.96-15.7Q530.96-7.85 527.69-3.68 524.41 0.5 517.86 0.5L517.86 0.5ZM544.31 0L544.31-31.85 534.91-31.85 534.91-36.75 559.36-36.75 559.36-31.85 549.86-31.85 549.86 0 544.31 0ZM595.3 0L586.45-17.15 584.15-22.35 583.1-17.15 579.7 0 574.15 0 581.75-36.75 582.35-36.75 592.45-16.9 595.45-10.25 598.45-16.9 608.35-36.75 608.9-36.75 616.8 0 611.3 0 607.6-17.15 606.5-22.35 604.5-17.15 595.6 0 595.3 0ZM638.65 0.5Q633.65 0.5 629.42-1.83 625.2-4.15 622.7-8.45 620.2-12.75 620.2-18.45L620.2-18.45Q620.2-24.2 622.7-28.48 625.2-32.75 629.42-35.05 633.65-37.35 638.65-37.35L638.65-37.35Q643.65-37.35 647.87-35.05 652.1-32.75 654.6-28.48 657.1-24.2 657.1-18.45L657.1-18.45Q657.1-12.75 654.6-8.45 652.1-4.15 647.87-1.83 643.65 0.5 638.65 0.5L638.65 0.5ZM638.65-4.55Q642.1-4.55 644.95-6.18 647.8-7.8 649.47-10.93 651.15-14.05 651.15-18.4L651.15-18.4Q651.15-22.8 649.47-25.93 647.8-29.05 644.97-30.65 642.15-32.25 638.65-32.25L638.65-32.25Q635.15-32.25 632.3-30.65 629.45-29.05 627.8-25.93 626.15-22.8 626.15-18.4L626.15-18.4Q626.15-14.05 627.85-10.93 629.55-7.8 632.42-6.18 635.3-4.55 638.65-4.55L638.65-4.55ZM671.8 0.5Q668.8 0.5 665.85-0.55 662.9-1.6 661.6-2.9L661.6-2.9 664.25-7.65Q665.3-6.7 667.52-5.68 669.75-4.65 671.8-4.65L671.8-4.65Q674.45-4.65 676.12-5.9 677.8-7.15 677.8-9.35L677.8-9.35Q677.8-11.05 676.9-12.3 676-13.55 674.7-14.38 673.4-15.2 671-16.4L671-16.4Q668.15-17.8 667.1-18.5L667.1-18.5Q662.25-21.75 662.25-27.5L662.25-27.5Q662.25-32.25 665.4-34.77 668.55-37.3 673.35-37.3L673.35-37.3Q678.5-37.3 682.1-34.35L682.1-34.35 679.45-29.8Q678.5-30.8 676.77-31.53 675.05-32.25 673.1-32.25L673.1-32.25Q670.6-32.25 669.17-31.13 667.75-30 667.75-27.8L667.75-27.8Q667.75-26.25 668.65-25.03 669.55-23.8 670.92-22.9 672.3-22 674.65-20.7L674.65-20.7Q676.9-19.45 678.1-18.73 679.3-18 680.35-17L680.35-17Q681.8-15.7 682.7-13.9 683.6-12.1 683.6-9.95L683.6-9.95Q683.6-6.6 682.07-4.25 680.55-1.9 677.87-0.7 675.2 0.5 671.8 0.5L671.8 0.5ZM695.09 0L695.09-31.85 685.69-31.85 685.69-36.75 710.14-36.75 710.14-31.85 700.64-31.85 700.64 0 695.09 0ZM715.54 0L715.54-36.75 721.19-36.75 721.19-5 731.74-5 731.74 0 715.54 0ZM745.19 0L745.19-17.15 732.44-36.75 739.14-36.75 747.99-22.25 756.84-36.75 763.49-36.75 750.79-17.05 750.79 0 745.19 0ZM787.28 0.5Q784.28 0.5 781.33-0.55 778.38-1.6 777.08-2.9L777.08-2.9 779.73-7.65Q780.78-6.7 783.01-5.68 785.23-4.65 787.28-4.65L787.28-4.65Q789.93-4.65 791.61-5.9 793.28-7.15 793.28-9.35L793.28-9.35Q793.28-11.05 792.38-12.3 791.48-13.55 790.18-14.38 788.88-15.2 786.48-16.4L786.48-16.4Q783.63-17.8 782.58-18.5L782.58-18.5Q777.73-21.75 777.73-27.5L777.73-27.5Q777.73-32.25 780.88-34.77 784.03-37.3 788.83-37.3L788.83-37.3Q793.98-37.3 797.58-34.35L797.58-34.35 794.93-29.8Q793.98-30.8 792.26-31.53 790.53-32.25 788.58-32.25L788.58-32.25Q786.08-32.25 784.66-31.13 783.23-30 783.23-27.8L783.23-27.8Q783.23-26.25 784.13-25.03 785.03-23.8 786.41-22.9 787.78-22 790.13-20.7L790.13-20.7Q792.38-19.45 793.58-18.73 794.78-18 795.83-17L795.83-17Q797.28-15.7 798.18-13.9 799.08-12.1 799.08-9.95L799.08-9.95Q799.08-6.6 797.56-4.25 796.03-1.9 793.36-0.7 790.68 0.5 787.28 0.5L787.28 0.5ZM810.58 0L810.58-31.85 801.18-31.85 801.18-36.75 825.63-36.75 825.63-31.85 816.13-31.85 816.13 0 810.58 0ZM842.68 0.5Q835.78 0.5 832.68-3.65 829.58-7.8 829.58-15.7L829.58-15.7 829.58-36.75 835.18-36.75 835.18-15.6Q835.18-9.75 836.93-7.23 838.68-4.7 842.68-4.7L842.68-4.7Q846.68-4.7 848.4-7.18 850.13-9.65 850.13-15.6L850.13-15.6 850.13-36.75 855.78-36.75 855.78-15.7Q855.78-7.85 852.5-3.68 849.23 0.5 842.68 0.5L842.68 0.5ZM863.08 0L863.08-36.75 880.33-36.75 880.33-31.9 868.63-31.9 868.63-21.5 877.73-21.5 877.73-16.6 868.63-16.6 868.63 0 863.08 0ZM886.42 0L886.42-36.75 903.67-36.75 903.67-31.9 891.97-31.9 891.97-21.5 901.07-21.5 901.07-16.6 891.97-16.6 891.97 0 886.42 0Z" opacity="1" transform="matrix(1,0,0,1,0,0)" fill="#ffffff" class="slogan-text-1" data-fill-palette-color="secondary" id="text-1"></path></svg></g></svg></g></svg></g></svg></g><g><svg viewBox="0 0 116.75747318852802 78.44324831478104" height="78.44324831478104" width="116.75747318852802"><g><svg xmlns="http://www.w3.org/2000/svg" data-name="Layer 1 copy" viewBox="0 80.01394034695423 512 343.9860596530458" x="0" y="0" height="78.44324831478104" width="116.75747318852802" class="icon-icon-0" data-fill-palette-color="accent" id="icon-0"><path d="M456.619 171.175C418.769 138.184 364.284 120.519 298.91 120.011L253.121 81.854A8 8 0 0 0 242.343 93.654C246.114 97.426 248.295 103.517 248.928 111.679 180.188 109.507 126.301 133.363 92.776 154.203A300 300 0 0 0 73.553 167.209C48.891 160.426 29.74 168.269 28.896 168.624A8 8 0 0 0 24.068 174.944L16.268 233.953C5.472 253.754 0 274.618 0 296 0 342.7 26.109 377.082 77.6 398.2 119.36 415.318 179.383 424 256 424S392.64 415.318 434.4 398.2C485.891 377.082 512 342.7 512 296 512 246.634 492.332 202.3 456.619 171.175M101.219 167.794C132.856 148.127 183.689 125.603 248.495 127.674A186 186 0 0 1 243.992 152H216V168H239.55C235.505 181.25 230.203 195.916 223.65 211.831 207.262 251.652 187.55 288.831 180.091 302.519A357 357 0 0 1 127.13 281.174C133.454 269.798 147.167 263.348 147.33 263.274L144 256 140.689 248.717C139.806 249.117 121.996 257.385 113.044 273.617 98.487 265.282 83.932 255.177 71.687 243.206A187.46 187.46 0 0 1 143.851 188.094C167.082 178.051 184.709 175.974 184.885 175.955L184 168 183.129 160.047C180.129 160.376 111.809 168.557 60.792 231.216A102.7 102.7 0 0 1 48.013 211.016C53.645 204.833 71.953 185.99 101.224 167.794ZM56.742 180.536C50.659 185.736 45.754 190.382 42.07 194.074A79.5 79.5 0 0 1 40.23 181.85 58.3 58.3 0 0 1 56.742 180.536M428.327 383.392C388.5 399.721 330.525 408 256 408S123.5 399.721 83.673 383.392C38.136 364.72 16 336.134 16 296 16 276.9 21.041 258.192 30.982 240.41A8 8 0 0 0 31.93 237.555L34.33 219.374C46.757 244.501 70.242 267.387 103.987 286.923A352 352 0 0 0 181.959 319.736 8 8 0 0 0 190.959 315.936C191.221 315.472 217.445 268.915 238.392 218.045 257.477 171.695 266.339 136.782 265.055 112.63L290.873 134.145A8 8 0 0 0 296 136C358.747 136 410.652 152.334 446.106 183.237Q447.525 184.474 448.906 185.737C430.341 244.522 340.506 304.716 339.582 305.337L348.427 318.67C352.253 316.132 436.391 259.77 461.282 198.508 484.061 225.016 496 258.318 496 296 496 336.134 473.864 364.72 428.327 383.392" fill="#ffffff" data-fill-palette-color="accent"></path><path d="M141.657 237.657C147.681 231.633 167.03 216 184 216V200C157 200 131.419 225.268 130.343 226.343Z" fill="#ffffff" data-fill-palette-color="accent"></path><path d="M292.76 303.046C274.891 304.525 257.641 316.739 241.49 339.346A8 8 0 0 0 246.264 351.805 156.8 156.8 0 0 0 277.747 355.217C291.407 355.217 306.499 352.97 316.573 344.888 324.049 338.9 328 330.289 328 320A8 8 0 0 0 325.657 314.343 43.88 43.88 0 0 0 292.76 303.046M306.572 332.405C300.458 337.316 288.621 339.678 273.237 339.062 269.503 338.912 265.937 338.603 262.768 338.242 273.191 326.53 283.785 319.942 293.824 319.013A27.68 27.68 0 0 1 311.712 323.621 13.75 13.75 0 0 1 306.571 332.405Z" fill="#ffffff" data-fill-palette-color="accent"></path><path d="M314.73 296.011A64 64 0 0 0 324.13 295.295 82.9 82.9 0 0 0 351.802 285.673 8 8 0 0 0 354.292 274.301C342.509 257.048 324.962 249.609 303.559 252.786A82.9 82.9 0 0 0 275.887 262.408 8 8 0 0 0 273.397 273.78C283.4 288.438 297.568 296.011 314.73 296.011M305.904 268.611C317.712 266.857 327.239 269.3 334.795 276.06 324.341 280.06 306.64 283.919 293.006 272.039A63.5 63.5 0 0 1 305.9 268.613Z" fill="#ffffff" data-fill-palette-color="accent"></path><path d="M392.763 308.51A8 8 0 0 0 381.658 305.018C363.426 315.218 354.458 332.032 355.717 353.637A82.9 82.9 0 0 0 362.841 382.054 8 8 0 0 0 373.941 385.546C392.173 375.346 401.141 358.532 399.882 336.927A82.9 82.9 0 0 0 392.763 308.51M373.956 365.858A63.5 63.5 0 0 1 371.688 352.705C370.988 340.791 374.271 331.516 381.676 324.592 384.729 335.358 387 353.333 373.956 365.858" fill="#ffffff" data-fill-palette-color="accent"></path><path d="M430.754 265.894A8 8 0 0 0 419.124 265.394C404.145 279.96 399.824 298.519 406.624 319.065A82.9 82.9 0 0 0 420.848 344.677 8 8 0 0 0 426.554 347.439C426.67 347.439 426.785 347.446 426.901 347.446A8 8 0 0 0 432.478 345.181C447.457 330.615 451.778 312.056 444.978 291.51A82.9 82.9 0 0 0 430.754 265.894M427.366 326.213C421.637 316.578 414.834 299.807 424.235 284.353 429.965 293.988 436.768 310.758 427.366 326.213" fill="#ffffff" data-fill-palette-color="accent"></path><path d="M484.9 252.381A82.9 82.9 0 0 0 470.676 226.769 8 8 0 0 0 459.046 226.269C444.067 240.835 439.746 259.394 446.546 279.94A82.9 82.9 0 0 0 460.77 305.552 8 8 0 0 0 466.476 308.314C466.592 308.314 466.707 308.321 466.823 308.321A8 8 0 0 0 472.4 306.056C487.377 291.485 491.7 272.927 484.9 252.381M467.289 287.089C461.56 277.454 454.757 260.683 464.158 245.229 469.886 254.863 476.688 271.634 467.287 287.088Z" fill="#ffffff" data-fill-palette-color="accent"></path><path d="M354.8 256.011A64 64 0 0 0 364.063 255.316 82.9 82.9 0 0 0 391.756 245.758 8 8 0 0 0 394.274 234.392C382.531 217.112 365.003 209.632 343.59 212.76A82.9 82.9 0 0 0 315.897 222.318 8 8 0 0 0 313.379 233.684C323.385 248.4 337.581 256.011 354.8 256.011M374.71 236.133C364.227 240.102 346.529 243.888 332.942 231.944 343.431 227.976 361.129 224.189 374.714 236.133Z" fill="#ffffff" data-fill-palette-color="accent"></path><path d="M399.121 212.189A60 60 0 0 0 414.916 209.958 82.9 82.9 0 0 0 441.242 197.1 8 8 0 0 0 442.359 185.512C428.6 169.792 410.3 164.5 389.422 170.206A82.9 82.9 0 0 0 363.1 183.06 8 8 0 0 0 361.983 194.648C372.143 206.265 384.789 212.189 399.121 212.189M393.642 185.639C405.153 182.492 414.907 183.777 423.214 189.59 413.314 194.805 396.198 200.751 381.244 190.582A63.4 63.4 0 0 1 393.642 185.64Z" fill="#ffffff" data-fill-palette-color="accent"></path></svg></g></svg></g></svg></g><defs></defs></svg><rect width="395.52" height="57.409130616318436" fill="none" stroke="none" visibility="hidden"></rect></g></svg></g></svg>