<?xml version="1.0" standalone="no"?>
<!DOCTYPE svg PUBLIC "-//W3C//DTD SVG 20010904//EN"
 "http://www.w3.org/TR/2001/REC-SVG-20010904/DTD/svg10.dtd">
<svg version="1.0" xmlns="http://www.w3.org/2000/svg"
 width="128.000000pt" height="128.000000pt" viewBox="0 0 128.000000 128.000000"
 preserveAspectRatio="xMidYMid meet">
<metadata>
Created by potrace 1.14, written by Peter Selinger 2001-2017
</metadata>
<g transform="translate(0.000000,128.000000) scale(0.100000,-0.100000)"
fill="#000000" stroke="none">
<path d="M615 969 c-4 -6 -2 -16 4 -22 21 -21 11 -34 -27 -35 -93 -4 -261 -59
-292 -97 -6 -7 -26 -11 -49 -8 -50 6 -66 -11 -75 -79 -3 -29 -13 -71 -21 -93
-20 -57 -19 -129 4 -173 59 -115 196 -163 471 -165 383 -3 542 90 517 303 -6
53 -42 129 -81 172 -57 63 -172 112 -284 122 -42 4 -63 12 -95 39 -56 45 -64
49 -72 36z m87 -88 c18 -10 47 -19 63 -19 63 -1 151 -24 190 -49 18 -12 17
-13 -13 -13 -34 0 -92 -24 -92 -39 0 -15 36 -40 66 -45 19 -4 44 1 67 13 l36
18 -14 -26 c-15 -30 -111 -129 -162 -168 -22 -17 -30 -30 -24 -36 11 -11 64
19 100 57 26 27 52 37 31 11 -28 -34 -1 -135 37 -135 8 0 21 16 28 34 18 44 2
105 -33 122 l-22 11 21 19 c12 10 32 38 46 62 19 32 28 40 35 30 56 -83 71
-180 40 -251 -31 -69 -117 -116 -241 -133 -25 -3 -49 -8 -53 -10 -10 -6 -285
-6 -328 1 -173 24 -257 65 -291 139 -23 51 -24 85 -2 156 l17 57 52 -53 c56
-55 180 -124 231 -127 26 -2 32 5 75 93 53 106 98 231 98 273 0 32 0 32 42 8z
m-72 -10 c0 -26 -15 -41 -39 -41 -18 0 -28 -5 -28 -15 0 -9 10 -15 24 -15 13
0 23 -2 23 -5 0 -25 -109 -255 -121 -255 -20 0 -89 33 -89 42 0 6 7 16 15 22
10 7 12 16 5 26 -8 12 -13 11 -33 -8 -30 -28 -36 -28 -76 6 l-34 28 44 38 c46
40 132 86 162 86 10 0 17 8 17 19 0 18 -4 18 -37 9 -60 -16 -127 -54 -168 -93
-29 -29 -39 -34 -46 -24 -15 24 -10 35 30 67 54 44 142 89 203 106 61 16 148
20 148 7z m384 -100 c-2 -3 -12 3 -22 13 -16 17 -16 18 5 5 12 -7 20 -15 17
-18z m-782 -13 c-7 -7 -12 -8 -12 -2 0 14 12 26 19 19 2 -3 -1 -11 -7 -17z
m732 3 c6 -10 -33 -20 -52 -13 -7 2 -10 8 -6 13 7 12 51 12 58 0z m26 -238 c0
-28 -3 -34 -10 -23 -13 20 -13 60 0 60 6 0 10 -17 10 -37z"/>
<path d="M802 708 c-40 -11 -50 -32 -28 -57 16 -18 15 -19 -24 -19 -68 -1 -92
-36 -45 -66 43 -28 135 -16 135 19 0 8 -10 21 -22 29 -22 16 -21 16 20 16 24
0 52 5 63 10 57 31 -26 87 -99 68z m68 -38 c0 -5 -13 -10 -30 -10 -16 0 -30 5
-30 10 0 6 14 10 30 10 17 0 30 -4 30 -10z m-80 -80 c0 -13 -40 -13 -60 0 -11
7 -5 10 23 10 20 0 37 -4 37 -10z"/>
<path d="M1038 673 c-8 -10 -18 -26 -21 -35 -8 -24 10 -82 32 -102 19 -17 20
-17 37 9 22 34 22 84 -1 119 -20 31 -27 32 -47 9z m32 -74 c0 -18 -4 -28 -10
-24 -5 3 -10 20 -10 36 0 18 4 28 10 24 6 -3 10 -20 10 -36z"/>
<path d="M678 519 c-19 -10 -42 -29 -52 -43 -15 -24 -15 -26 3 -36 25 -13 82
-13 115 0 30 11 55 55 40 70 -24 24 -70 28 -106 9z m70 -31 c-5 -15 -65 -34
-76 -24 -4 4 2 14 12 22 25 17 69 19 64 2z"/>
<path d="M870 512 c-37 -30 -34 -142 4 -142 22 0 56 49 56 81 0 34 -16 79 -29
79 -5 0 -19 -8 -31 -18z m25 -54 c-4 -42 -5 -42 -15 -32 -10 10 -2 54 10 54 4
0 6 -10 5 -22z"/>
<path d="M444 721 c-37 -23 -48 -37 -35 -46 15 -9 91 33 91 50 0 20 -19 19
-56 -4z"/>
</g>
</svg>
